<?xml version="1.0" standalone="no"?><!DOCTYPE svg PUBLIC "-//W3C//DTD SVG 1.1//EN" "http://www.w3.org/Graphics/SVG/1.1/DTD/svg11.dtd"><svg t="1748833014991" class="icon" viewBox="0 0 1024 1024" version="1.1" xmlns="http://www.w3.org/2000/svg" p-id="1679" width="256" height="256" data-spm-anchor-id="a313x.search_index.0.i4.6dde3a81EKICuG" xmlns:xlink="http://www.w3.org/1999/xlink"><path d="M691.612903 554.322581H556.387097V419.096774h-89.806452v135.225807H331.354839v89.806451h135.225806v135.225807h89.806452V644.129032H691.612903v-89.806451z" fill="#61E1FF" p-id="1680" data-spm-anchor-id="a313x.search_index.0.i2.6dde3a81EKICuG" class=""></path><path d="M920.774194 105.290323c-36.129032-13.419355-76.387097-2.064516-100.129033 26.838709L706.064516 274.580645H317.935484L202.322581 132.129032c-32-38.193548-88.774194-42.322581-126.967742-10.32258-20.645161 17.548387-32 42.322581-32 69.16129v346.83871C48.516129 722.580645 200.258065 923.870968 403.612903 923.870968h216.774194c202.322581 0 354.064516-202.322581 360.258064-386.064516V189.935484c-1.032258-38.193548-24.774194-72.258065-59.870967-84.645161z m-805.161291 84.645161c0-10.322581 8.258065-17.548387 18.580645-17.548387 5.16129 0 9.290323 2.064516 12.387097 5.16129l84.645161 105.290323c-44.387097 11.354839-83.612903 35.096774-115.612903 68.129032V189.935484zM619.354839 851.612903H403.612903C267.354839 851.612903 115.612903 712.258065 115.612903 526.451613c0-99.096774 80.516129-179.612903 179.612903-179.612903h432.516129C826.83871 346.83871 908.387097 427.354839 908.387097 526.451613c0 185.806452-152.774194 325.16129-289.032258 325.16129z m172.387096-567.741935l84.645162-105.290323c6.193548-8.258065 17.548387-9.290323 25.806451-3.096774 4.129032 3.096774 7.225806 8.258065 7.225807 14.451613V350.967742c-33.032258-33.032258-73.290323-56.774194-117.67742-67.096774z" fill="#64A0FF" p-id="1681" data-spm-anchor-id="a313x.search_index.0.i5.6dde3a81EKICuG" class=""></path></svg>